<?xml version="1.0" encoding="UTF-8" standalone="no"?>
<!DOCTYPE svg PUBLIC "-//W3C//DTD SVG 1.1//EN" "http://www.w3.org/Graphics/SVG/1.1/DTD/svg11.dtd">
<!-- Created with Vectornator (http://vectornator.io/) -->
<svg height="100%" stroke-miterlimit="10" style="fill-rule:nonzero;clip-rule:evenodd;stroke-linecap:round;stroke-linejoin:round;" version="1.1" viewBox="0 0 346 392" width="100%" xml:space="preserve" xmlns="http://www.w3.org/2000/svg" xmlns:vectornator="http://vectornator.io" xmlns:xlink="http://www.w3.org/1999/xlink">
<defs/>
<clipPath id="ArtboardFrame">
<rect height="392" width="346" x="0" y="0"/>
</clipPath>
<g clip-path="url(#ArtboardFrame)" id="XMLID_00000124864317495792359700000011737323806490190222_" vectornator:layerName="XMLID_00000124864317495792359700000011737323806490190222_">
<g opacity="1">
<path d="M170.94 288.713C200.78 288.713 225.92 266.893 231.15 238.473L232.17 238.673C232.17 238.673 295.16 251.423 294.73 199.153C294.31 146.893 232.17 160.063 232.17 160.063L232.15 160.063C232.06 126.273 204.02 99.0225 170.94 99.0125C162.24 99.0025 155.16 100.903 150.54 102.573C148.96 103.143 147.66 103.693 146.69 104.123C125.49 113.563 111.56 135.053 109.89 155.753C109.88 155.903 109.92 157.313 109.91 160.063L109.73 160.063C109.73 160.063 47.6 146.893 47.17 199.153C46.75 251.423 109.73 238.673 109.73 238.673L110.73 238.483C115.96 266.903 141.1 288.713 170.94 288.713ZM345.69 108.593L345.69 282.513C345.69 290.223 341.57 297.353 334.88 301.203L183.6 388.233C176.94 392.063 168.75 392.063 162.09 388.233L10.81 301.203C4.13 297.353-1.42109e-14 290.223-1.42109e-14 282.513L-1.42109e-14 108.593C-1.42109e-14 100.873 4.12 93.7425 10.81 89.8925L162.09 2.8725C168.75-0.9575 176.94-0.9575 183.6 2.8725L334.88 89.8925C341.57 93.7425 345.69 100.873 345.69 108.593Z" fill="#f7c54a" fill-rule="nonzero" opacity="1" stroke="none"/>
<path d="M232.13 199.313C232.17 190.593 232.2 181.343 232.12 171.113C232.1 168.753 232.08 166.343 232.05 163.873C232.03 162.663 232.15 161.453 232.15 160.223C232.15 160.173 232.15 160.113 232.15 160.063L232.17 160.063C232.17 160.063 294.31 146.893 294.73 199.153C295.16 251.423 232.17 238.673 232.17 238.673L231.15 238.473C231.81 234.913 232.15 231.243 232.15 227.503C232.15 226.693 232.1 225.883 232.08 225.083C232.05 224.633 232.04 224.193 232.04 223.743C232.03 215.853 232.09 207.843 232.13 199.313Z" fill="#b7b7b7" fill-rule="nonzero" opacity="1" stroke="none"/>
<path d="M232.15 160.063C232.15 160.113 232.15 160.173 232.15 160.223C232.15 161.453 232.03 162.663 232.05 163.873C232.08 166.343 232.1 168.753 232.12 171.113L109.8 171.113C109.82 168.703 109.85 166.313 109.88 163.923C109.9 162.433 109.91 161.143 109.91 160.063C109.92 157.313 109.88 155.903 109.89 155.753C111.56 135.053 125.49 113.563 146.69 104.123C147.66 103.693 148.96 103.143 150.54 102.573C155.16 100.903 162.24 99.0025 170.94 99.0125C204.02 99.0225 232.06 126.273 232.15 160.063Z" fill="#f7c54a" fill-rule="nonzero" opacity="1" stroke="none"/>
<path d="M232.08 225.083C232.1 225.883 232.15 226.693 232.15 227.503C232.15 231.243 231.81 234.913 231.15 238.473C225.92 266.893 200.78 288.713 170.94 288.713C141.1 288.713 115.96 266.903 110.73 238.483C110.07 234.913 109.73 231.243 109.73 227.503C109.73 226.243 109.85 224.993 109.85 223.743C109.79 206.043 109.65 188.413 109.8 171.113L232.12 171.113C232.2 181.343 232.17 190.593 232.13 199.313C232.09 207.843 232.03 215.853 232.04 223.743C232.04 224.193 232.05 224.633 232.08 225.083Z" fill="#f7c54a" fill-rule="nonzero" opacity="1" stroke="none"/>
<path d="M110.73 238.483L109.73 238.673C109.73 238.673 46.75 251.423 47.17 199.153C47.6 146.893 109.73 160.063 109.73 160.063L109.91 160.063C109.91 161.143 109.9 162.433 109.88 163.923C109.85 166.313 109.82 168.703 109.8 171.113C109.65 188.413 109.79 206.043 109.85 223.743C109.85 224.993 109.73 226.243 109.73 227.503C109.73 231.243 110.07 234.913 110.73 238.483Z" fill="#b7b7b7" fill-rule="nonzero" opacity="1" stroke="none"/>
</g>
<g opacity="1">
<path d="M345.69 282.513L345.69 108.593C345.69 100.873 341.57 93.7425 334.88 89.8925L183.6 2.8725C176.94-0.9575 168.75-0.9575 162.09 2.8725L10.81 89.8925C4.12 93.7425-1.42109e-14 100.873-1.42109e-14 108.593L-1.42109e-14 282.513C-1.42109e-14 290.223 4.13 297.353 10.81 301.203L162.09 388.233C168.75 392.063 176.94 392.063 183.6 388.233L334.88 301.203C341.57 297.353 345.69 290.223 345.69 282.513Z" fill="none" opacity="1" stroke="#000000" stroke-linecap="butt" stroke-linejoin="miter" stroke-width="12"/>
<path d="M232.12 171.113C232.1 168.753 232.08 166.343 232.05 163.873C232.03 162.663 232.15 161.453 232.15 160.223C232.15 160.173 232.15 160.113 232.15 160.063C232.06 126.273 204.02 99.0225 170.94 99.0125C162.24 99.0025 155.16 100.903 150.54 102.573C148.96 103.143 147.66 103.693 146.69 104.123C125.49 113.563 111.56 135.053 109.89 155.753C109.88 155.903 109.92 157.313 109.91 160.063C109.91 161.143 109.9 162.433 109.88 163.923C109.85 166.313 109.82 168.703 109.8 171.113C109.65 188.413 109.79 206.043 109.85 223.743C109.85 224.993 109.73 226.243 109.73 227.503C109.73 231.243 110.07 234.913 110.73 238.483C115.96 266.903 141.1 288.713 170.94 288.713C200.78 288.713 225.92 266.893 231.15 238.473C231.81 234.913 232.15 231.243 232.15 227.503C232.15 226.693 232.1 225.883 232.08 225.083C232.05 224.633 232.04 224.193 232.04 223.743C232.03 215.853 232.09 207.843 232.13 199.313C232.17 190.593 232.2 181.343 232.12 171.113Z" fill="none" opacity="1" stroke="#000000" stroke-linecap="butt" stroke-linejoin="miter" stroke-width="12"/>
<path d="M140.83 73.4625L150.54 102.572" fill="none" opacity="1" stroke="#000000" stroke-linecap="round" stroke-linejoin="miter" stroke-width="12"/>
<path d="M109.73 160.063C109.73 160.063 47.6 146.893 47.17 199.153C46.75 251.423 109.73 238.673 109.73 238.673" fill="none" opacity="1" stroke="#000000" stroke-linecap="butt" stroke-linejoin="miter" stroke-width="12"/>
<path d="M232.17 160.063C232.17 160.063 294.31 146.893 294.73 199.153C295.16 251.423 232.17 238.673 232.17 238.673" fill="none" opacity="1" stroke="#000000" stroke-linecap="butt" stroke-linejoin="miter" stroke-width="12"/>
<path d="M109.8 171.112L232.12 171.112" fill="none" opacity="1" stroke="#000000" stroke-linecap="butt" stroke-linejoin="miter" stroke-width="12"/>
<path d="M113.49 199.313L232.13 199.313L235.81 199.313" fill="none" opacity="1" stroke="#000000" stroke-linecap="butt" stroke-linejoin="miter" stroke-width="12"/>
<path d="M113.49 225.083L232.08 225.083L235.81 225.083" fill="none" opacity="1" stroke="#000000" stroke-linecap="butt" stroke-linejoin="miter" stroke-width="12"/>
<path d="M201.84 73.4625L192.13 102.572" fill="none" opacity="1" stroke="#000000" stroke-linecap="round" stroke-linejoin="miter" stroke-width="12"/>
<path d="M170.94 288.713L170.96 319.413" fill="none" opacity="1" stroke="#000000" stroke-linecap="round" stroke-linejoin="miter" stroke-width="12"/>
</g>
</g>
</svg>
