<?xml version="1.0" encoding="iso-8859-1"?>
<!-- Uploaded to: SVG Repo, www.svgrepo.com, Generator: SVG Repo Mixer Tools -->
<svg height="800px" width="800px" version="1.1" id="Layer_1" xmlns="http://www.w3.org/2000/svg" xmlns:xlink="http://www.w3.org/1999/xlink" 
	 viewBox="0 0 511.997 511.997" xml:space="preserve">
<path style="fill:#FFF3E6;" d="M446.897,268.557c55.224,40.491,68.995,96.057,30.732,124.106
	c-29.922,21.948-82.817,20.543-130.877-0.506c-10.088-4.405-19.973-9.696-29.378-15.822c-3.05-1.975-6.063-4.05-9.012-6.215
	c-34.099-24.998-52.389-55.743-52.389-82.222c0-16.391,7.025-31.15,21.657-41.883c2.747-2.013,5.683-3.823,8.784-5.455
	C326.652,219.573,395.634,230.965,446.897,268.557z"/>
<path style="fill:#666666;" d="M317.374,376.335l-0.304,0.468H193.863h-0.013c-9.227,5.949-18.885,11.088-28.745,15.391v0.013
	c3.202,12.176,7.594,23.543,12.986,33.795l1.43-0.139h152.8l1.443,0.114c5.392-10.265,9.797-21.631,12.986-33.821
	C336.664,387.752,326.778,382.461,317.374,376.335z"/>
<g>
	<path style="fill:#F0C419;" d="M332.322,425.863l1.443,0.114c-17.632,33.517-45.946,55.237-77.843,55.237
		s-60.199-21.72-77.83-55.212l1.43-0.139L332.322,425.863L332.322,425.863z"/>
	<path style="fill:#F0C419;" d="M317.374,376.335l-0.304,0.468H193.863c3.304-2.126,6.544-4.354,9.721-6.683
		c34.099-24.998,52.389-55.743,52.389-82.222c0,26.479,18.29,57.224,52.389,82.222C311.311,372.284,314.323,374.36,317.374,376.335z
		"/>
	<path style="fill:#F0C419;" d="M226.722,124.022c8.772-4.443,18.695-6.936,29.201-6.936c35.782,0,64.793,29.011,64.793,64.806
		c0,25.011-14.176,46.706-34.922,57.503c-8.936,4.658-19.1,7.291-29.871,7.291c-10.746,0-20.872-2.607-29.795-7.24
		c-20.796-10.784-35.01-32.517-35.01-57.553C191.116,156.602,205.596,134.705,226.722,124.022z"/>
</g>
<path style="fill:#FFF3E6;" d="M234.316,246.014c14.632,10.733,21.657,25.492,21.657,41.883c0,26.479-18.29,57.224-52.389,82.222
	c-3.177,2.329-6.417,4.557-9.721,6.683h-0.013c-9.227,5.949-18.885,11.088-28.745,15.391
	c-48.035,21.011-100.879,22.404-130.789,0.468c-38.263-28.049-24.492-83.615,30.732-124.106
	c51.262-37.592,120.245-48.984,160.483-27.998C228.633,242.192,231.569,244.002,234.316,246.014z"/>
<path d="M255.922,259.342c-12.39,0-24.71-2.996-35.627-8.664c-25.803-13.38-41.836-39.739-41.836-68.787
	c0-29.388,16.301-55.889,42.544-69.162l0,0c10.725-5.431,22.8-8.302,34.919-8.302c42.706,0,77.451,34.75,77.451,77.463
	c0,28.997-15.993,55.333-41.738,68.73C280.696,256.326,268.344,259.342,255.922,259.342z M255.922,129.743
	c-8.283,0-16.182,1.875-23.483,5.571c-0.001,0.001-0.004,0.001-0.006,0.003c-17.679,8.94-28.66,26.787-28.66,46.574
	c0,19.556,10.798,37.303,28.18,46.316c7.44,3.863,15.501,5.82,23.969,5.82c8.483,0,16.565-1.971,24.02-5.857
	c17.346-9.027,28.117-26.759,28.117-46.279C308.059,153.137,284.671,129.743,255.922,129.743z"/>
<path d="M255.922,493.871c-35.318,0-68.6-23.167-89.031-61.972c-5.887-11.195-10.606-23.464-14.027-36.472
	c-1.778-6.76,2.261-13.683,9.021-15.46c6.76-1.783,13.683,2.261,15.461,9.021c2.934,11.156,6.954,21.628,11.947,31.123
	c16.209,30.785,40.494,48.445,66.628,48.445c25.763,0,50.674-18.12,66.64-48.473c5.021-9.558,9.041-20.034,11.944-31.132
	c1.768-6.763,8.683-10.812,15.45-9.041c6.763,1.77,10.811,8.685,9.042,15.45c-3.391,12.956-8.108,25.238-14.026,36.503
	C324.544,470.693,291.257,493.871,255.922,493.871z"/>
<path d="M420.337,421.286c-24.716,0.001-51.955-5.838-78.662-17.536c-10.869-4.747-21.373-10.404-31.208-16.81
	c-3.238-2.095-6.474-4.328-9.592-6.616c-36.039-26.421-57.558-60.974-57.558-92.427c0-20.9,9.527-39.399,26.827-52.09
	c3.182-2.33,6.67-4.498,10.373-6.449c22.053-11.499,51.922-14.774,84.145-9.242c31.642,5.431,63.506,19.01,89.721,38.234
	c5.636,4.134,6.855,12.055,2.721,17.692c-4.136,5.638-12.056,6.857-17.694,2.721c-46.349-33.989-110.981-45.841-147.145-26.982
	c-2.559,1.348-4.983,2.85-7.155,4.443c-10.935,8.02-16.481,18.678-16.481,31.674c0,23.419,17.649,50.34,47.215,72.014
	c2.725,2,5.553,3.949,8.407,5.797c8.698,5.665,17.961,10.654,27.565,14.847c45.288,19.837,92.839,20.599,118.325,1.9
	c19.363-14.194,18.23-33.817,13.872-47.779c-2.083-6.673,1.638-13.77,8.311-15.853c6.669-2.082,13.771,1.638,15.853,8.311
	c9.497,30.423,1.089,58.028-23.068,75.735C468.388,415.14,445.688,421.285,420.337,421.286z"/>
<path d="M476.249,308.487c-3.642,0-7.254-1.563-9.758-4.587c-1.108-1.338-2.283-2.697-3.496-4.043
	c-4.678-5.193-4.262-13.197,0.932-17.876c5.192-4.678,13.197-4.263,17.876,0.93c1.448,1.608,2.857,3.238,4.188,4.847
	c4.457,5.384,3.706,13.364-1.68,17.822C481.951,307.534,479.091,308.487,476.249,308.487z"/>
<path d="M91.615,421.282c-25.359,0.001-48.054-6.144-64.784-18.411C9.53,390.187,0.001,371.687,0,350.779
	c-0.001-31.447,21.518-66.001,57.565-92.431c26.213-19.224,58.077-32.802,89.719-38.233c32.232-5.533,62.096-2.257,84.101,9.22
	c3.748,1.973,7.236,4.141,10.412,6.468c17.306,12.694,26.834,31.194,26.834,52.094c0,31.452-21.519,66.006-57.563,92.431
	c-3.373,2.472-6.857,4.867-10.355,7.118c-0.118,0.076-0.237,0.149-0.356,0.221c-9.535,6.12-19.69,11.546-30.189,16.128
	C143.506,415.459,116.299,421.281,91.615,421.282z M177.546,242.822c-33.674,0-73.551,12.87-105.012,35.942
	c-29.569,21.681-47.221,48.602-47.22,72.014c0,13,5.548,23.657,16.485,31.676c25.476,18.681,72.989,17.934,118.233-1.857
	c9.396-4.101,18.462-8.955,26.959-14.433c0.116-0.075,0.233-0.147,0.349-0.216c2.959-1.915,5.906-3.944,8.761-6.038
	c29.563-21.673,47.213-48.594,47.213-72.013c0-12.995-5.546-23.654-16.486-31.678c-2.167-1.587-4.59-3.091-7.194-4.462
	C208.033,245.708,193.482,242.822,177.546,242.822z"/>
<path d="M226.722,136.686c-5.936,0-10.92-4.082-12.287-9.596l-26.259-92.858c-1.902-6.726,2.01-13.722,8.736-15.624
	c6.725-1.906,13.722,2.009,15.624,8.735l26.365,93.234c0.316,1.12,0.477,2.28,0.477,3.444
	C239.379,131.013,233.712,136.686,226.722,136.686z"/>
<path d="M286.04,136.696c-1.139,0-2.299-0.156-3.45-0.481c-6.726-1.901-10.637-8.897-8.736-15.623l26.365-93.247
	c1.902-6.727,8.894-10.642,15.624-8.736c6.726,1.901,10.637,8.897,8.736,15.623l-26.365,93.247
	C296.637,133.055,291.563,136.696,286.04,136.696z"/>
<path d="M332.323,438.52H179.522c-6.989,0-12.657-5.667-12.657-12.657c0-6.991,5.668-12.657,12.657-12.657h152.801
	c6.989,0,12.657,5.667,12.657,12.657C344.981,432.854,339.313,438.52,332.323,438.52z"/>
<path d="M317.07,389.46H193.863c-6.989,0-12.664-5.667-12.664-12.657c0-6.991,5.662-12.657,12.651-12.657h123.22
	c6.989,0,12.657,5.667,12.657,12.657C329.727,383.794,324.059,389.46,317.07,389.46z"/>
</svg>