<?xml version="1.0" encoding="UTF-8" standalone="no"?>
<!DOCTYPE svg PUBLIC "-//W3C//DTD SVG 1.1//EN" "http://www.w3.org/Graphics/SVG/1.1/DTD/svg11.dtd">
<!-- Created with Vectornator (http://vectornator.io/) -->
<svg height="100%" stroke-miterlimit="10" style="fill-rule:nonzero;clip-rule:evenodd;stroke-linecap:round;stroke-linejoin:round;" version="1.1" viewBox="0 0 634 724" width="100%" xml:space="preserve" xmlns="http://www.w3.org/2000/svg" xmlns:vectornator="http://vectornator.io" xmlns:xlink="http://www.w3.org/1999/xlink">
<defs/>
<clipPath id="ArtboardFrame">
<rect height="724" width="634" x="0" y="0"/>
</clipPath>
<g clip-path="url(#ArtboardFrame)" id="圖層1" vectornator:layerName="圖層1">
<path d="M305.243 720.623L11.2607 550.893C5.04158 547.302 0 538.57-1.13687e-13 531.389L-1.13687e-13 191.928C-1.13687e-13 184.746 5.04158 176.014 11.2607 172.423L305.243 2.69295C311.462-0.897651 321.545-0.897651 327.764 2.69295L621.746 172.423C627.965 176.014 633.006 184.746 633.006 191.928L633.006 531.389C633.006 538.57 627.965 547.302 621.746 550.893L609.07 558.211L327.764 720.623C321.545 724.214 311.462 724.214 305.243 720.623Z" fill="#383838" fill-rule="nonzero" opacity="1" stroke="#f4f4f9" stroke-linecap="butt" stroke-linejoin="miter" stroke-width="0"/>
<path d="M300.867 689.449L42.672 539.207C34.4099 534.4 27.7122 522.753 27.7122 513.194L27.7122 212.507C27.7122 202.948 34.4099 191.302 42.672 186.494L300.867 36.2526C309.129 31.445 322.524 31.445 330.786 36.2526L588.981 186.494C597.243 191.302 603.941 202.948 603.941 212.507L603.941 513.194C603.941 522.753 597.243 534.4 588.981 539.207L330.786 689.449C322.524 694.256 309.129 694.256 300.867 689.449Z" fill="#ffbe00" fill-rule="nonzero" opacity="1" stroke="#f4f4f9" stroke-linecap="butt" stroke-linejoin="miter" stroke-width="0"/>
<path d="M321.848 532.354L321.848 532.354C329.052 532.354 334.892 538.193 334.892 545.397L334.892 586.566C334.892 593.77 329.052 599.61 321.848 599.61L321.848 599.61C314.645 599.61 308.805 593.77 308.805 586.566L308.805 545.397C308.805 538.193 314.645 532.354 321.848 532.354Z" fill="#000000" fill-rule="nonzero" opacity="1" stroke="#f4f4f9" stroke-linecap="butt" stroke-linejoin="miter" stroke-width="0"/>
<path d="M157.321 344.836C157.321 312.559 182.541 286.394 213.651 286.394C244.761 286.394 269.981 312.559 269.981 344.836C269.981 377.113 244.761 403.279 213.651 403.279C182.541 403.279 157.321 377.113 157.321 344.836Z" fill="#000000" fill-rule="nonzero" opacity="1" stroke="#f4f4f9" stroke-linecap="butt" stroke-linejoin="miter" stroke-width="0"/>
<path d="M265.344 108.233L265.344 108.233C271.176 106.389 277.575 110.183 279.638 116.707L286.576 138.646C288.639 145.17 285.584 151.954 279.753 153.798L279.753 153.798C273.922 155.642 267.522 151.848 265.459 145.323L258.522 123.385C256.459 116.861 259.513 110.077 265.344 108.233Z" fill="#000000" fill-rule="nonzero" opacity="1" stroke="#f4f4f9" stroke-linecap="butt" stroke-linejoin="miter" stroke-width="0"/>
<path d="M378.293 108.597L378.293 108.597C383.914 111.008 386.284 118.06 383.586 124.349L374.516 145.495C371.819 151.783 365.076 154.927 359.455 152.516L359.455 152.516C353.835 150.105 351.465 143.053 354.162 136.765L363.233 115.618C365.93 109.33 372.673 106.186 378.293 108.597Z" fill="#000000" fill-rule="nonzero" opacity="1" stroke="#f4f4f9" stroke-linecap="butt" stroke-linejoin="miter" stroke-width="0"/>
<path d="M377.008 346.948C377.008 314.672 402.228 288.506 433.339 288.506C464.449 288.506 489.669 314.672 489.669 346.948C489.669 379.225 464.449 405.391 433.339 405.391C402.228 405.391 377.008 379.225 377.008 346.948Z" fill="#000000" fill-rule="nonzero" opacity="1" stroke="#f4f4f9" stroke-linecap="butt" stroke-linejoin="miter" stroke-width="0"/>
<path d="M393.097 348C393.097 323.111 412.012 302.936 435.345 302.936C458.678 302.936 477.592 323.111 477.592 348C477.592 372.888 458.678 393.064 435.345 393.064C412.012 393.064 393.097 372.888 393.097 348Z" fill="#c9dbe7" fill-rule="nonzero" opacity="1" stroke="#f4f4f9" stroke-linecap="butt" stroke-linejoin="miter" stroke-width="0"/>
<path d="M169.995 345.54C169.995 320.652 188.91 300.476 212.243 300.476C235.576 300.476 254.49 320.652 254.49 345.54C254.49 370.428 235.576 390.604 212.243 390.604C188.91 390.604 169.995 370.428 169.995 345.54Z" fill="#c9dbe7" fill-rule="nonzero" opacity="1" stroke="#f4f4f9" stroke-linecap="butt" stroke-linejoin="miter" stroke-width="0"/>
<path d="M322.395 132.623L322.395 132.623C381.052 132.623 428.603 177.259 428.603 232.321L428.603 469.052C428.603 524.115 381.052 568.751 322.395 568.751L322.395 568.751C263.737 568.751 216.186 524.115 216.186 469.052L216.186 232.321C216.186 177.259 263.737 132.623 322.395 132.623Z" fill="#000000" fill-rule="nonzero" opacity="1" stroke="#f4f4f9" stroke-linecap="butt" stroke-linejoin="miter" stroke-width="0"/>
<path d="M322.395 151.123L322.395 151.123C371.722 151.123 411.71 192.176 411.71 242.817L411.71 460.539C411.71 511.18 371.722 552.233 322.395 552.233L322.395 552.233C273.067 552.233 233.079 511.18 233.079 460.539L233.079 242.817C233.079 192.176 273.067 151.123 322.395 151.123Z" fill="#ffb700" fill-rule="nonzero" opacity="1" stroke="#f4f4f9" stroke-linecap="butt" stroke-linejoin="miter" stroke-width="0"/>
<path d="M224.046 301.699L419.908 301.699L419.908 319.588L224.046 319.588L224.046 301.699Z" fill="#000000" fill-rule="nonzero" opacity="1" stroke="#f4f4f9" stroke-linecap="butt" stroke-linejoin="miter" stroke-width="0"/>
<path d="M225.074 343.203L420.936 343.203L420.936 361.092L225.074 361.092L225.074 343.203Z" fill="#000000" fill-rule="nonzero" opacity="1" stroke="#f4f4f9" stroke-linecap="butt" stroke-linejoin="miter" stroke-width="0"/>
<path d="M225.074 379.439L420.936 379.439L420.936 397.328L225.074 397.328L225.074 379.439Z" fill="#000000" fill-rule="nonzero" opacity="1" stroke="#f4f4f9" stroke-linecap="butt" stroke-linejoin="miter" stroke-width="0"/>
</g>
</svg>
