<?xml version="1.0" encoding="iso-8859-1"?>
<!-- Uploaded to: SVG Repo, www.svgrepo.com, Generator: SVG Repo Mixer Tools -->
<svg height="800px" width="800px" version="1.1" id="Layer_1" xmlns="http://www.w3.org/2000/svg" xmlns:xlink="http://www.w3.org/1999/xlink" 
	 viewBox="0 0 512 512" xml:space="preserve">
<g transform="translate(1 1)">
	<polygon style="fill:#FFE100;" points="131.414,7.717 7.828,78.338 7.828,219.579 131.414,290.2 255,219.579 255,60.683 	"/>
	<polygon style="fill:#FFFFFF;" points="34.31,219.579 34.31,78.338 146.421,13.897 131.414,7.717 7.828,78.338 7.828,219.579 
		131.414,290.2 144.655,282.255 	"/>
	<path style="fill:#FFE100;" d="M328.269,331.69c-21.186-21.186-25.6-52.083-15.007-77.683L255,219.579L131.414,290.2v141.241
		L255,502.062l123.586-70.621v-79.448C360.048,351.993,342.393,344.931,328.269,331.69"/>
	<polygon style="fill:#FFFFFF;" points="157.897,431.441 157.897,290.2 255,219.579 131.414,290.2 131.414,431.441 255,502.062 
		268.241,494.117 	"/>
	<polygon style="fill:#FFA800;" points="352.103,351.993 352.103,431.441 241.759,494.117 255,502.062 378.586,431.441 
		378.586,351.993 	"/>
	<path style="fill:#FFE100;" d="M328.269,231.055l50.317-46.786l50.317,46.786c6.179,6.179,11.476,14.124,15.007,22.069
		l58.262-33.545V78.338L378.586,7.717L255,60.683v158.897l59.145,33.545C317.676,245.179,322.09,238.117,328.269,231.055"/>
	<path style="fill:#FFA800;" d="M502.172,78.338L378.586,7.717l-15.007,6.179l112.11,64.441v141.241l-38.841,22.069
		c2.648,3.531,4.414,7.945,6.179,11.476l59.145-33.545V78.338z"/>
	<path style="fill:#FDCC00;" d="M428.903,331.69L428.903,331.69c-27.365,27.366-72.386,27.366-99.752,0l0,0
		c-27.366-27.366-27.366-72.386,0-99.752l49.434-47.669l50.317,46.786C456.269,259.303,456.269,303.441,428.903,331.69"/>
	<path style="fill:#FFA800;" d="M428.903,231.055l-50.317-46.786l-13.241,12.359l37.076,34.428
		c27.366,27.366,27.366,72.386,0,99.752c-10.593,10.593-22.952,16.772-37.076,19.421c22.069,4.414,45.903-2.648,63.559-19.421
		C456.269,303.441,456.269,259.303,428.903,231.055"/>
	<path d="M131.414,299.028c-1.766,0-2.648,0-4.414-0.883L3.414,227.524C0.766,225.759-1,223.11-1,219.579V78.338
		c0-3.531,1.766-6.179,4.414-7.945L127-0.228c2.648-0.883,5.297-0.883,7.945,0l123.586,52.966c2.648,0.883,5.297,4.414,5.297,7.945
		v158.897c0,3.531-1.766,6.179-4.414,7.945l-123.586,70.621C134.062,299.028,133.179,299.028,131.414,299.028z M16.655,214.283
		l114.759,65.324l114.759-65.324V65.979L132.297,17.428L16.655,83.634V214.283z"/>
	<path d="M131.414,263.717c-1.766,0-3.531,0-4.414-0.883l-44.138-26.483c-4.414-2.648-5.297-7.945-3.531-12.359
		c2.648-4.414,7.945-5.297,12.359-3.531l44.138,26.483c4.414,2.648,5.297,7.945,2.648,12.359
		C137.593,261.952,134.062,263.717,131.414,263.717z"/>
	<path d="M60.793,219.579c-1.766,0-2.648,0-4.414-0.883l-3.531-1.766c-17.655-9.71-18.538-13.241-18.538-33.545v-7.945
		c0-5.297,3.531-8.828,8.828-8.828s8.828,3.531,8.828,8.828v7.945c0,12.359,0,12.359,9.71,17.655l3.531,1.766
		c4.414,2.648,5.297,7.945,3.531,12.359C66.972,217.814,63.441,219.579,60.793,219.579z"/>
	<path d="M43.138,148.959c-5.297,0-8.828-3.531-8.828-8.828V95.993c0-5.297,3.531-8.828,8.828-8.828s8.828,3.531,8.828,8.828v44.138
		C51.966,145.428,48.434,148.959,43.138,148.959z"/>
	<path d="M307.966,219.579c-1.766,0-2.648,0-4.414-0.883l-3.531-1.766c-17.655-9.71-18.538-13.241-18.538-33.545v-7.062
		c0-5.297,3.531-8.828,8.828-8.828c5.297,0,8.828,3.531,8.828,8.828v7.945c0,12.359,0,12.359,9.71,17.655l3.531,1.766
		c4.414,2.648,5.297,7.945,3.531,12.359C314.145,217.814,311.497,219.579,307.966,219.579z"/>
	<path d="M290.31,148.959c-5.297,0-8.828-3.531-8.828-8.828V95.993c0-5.297,3.531-8.828,8.828-8.828s8.828,3.531,8.828,8.828v44.138
		C299.138,145.428,295.607,148.959,290.31,148.959z"/>
	<path d="M255,475.579c-1.766,0-3.531,0-4.414-0.883l-44.138-26.483c-4.414-2.648-5.297-7.945-2.648-12.359
		c2.648-4.414,7.945-5.297,12.359-2.648l44.138,26.483c4.414,2.648,5.297,7.945,2.648,12.359
		C261.179,473.814,257.648,475.579,255,475.579z"/>
	<path d="M184.379,431.441c-1.766,0-2.648,0-4.414-0.883l-3.531-1.766c-17.655-9.71-18.538-13.241-18.538-33.545v-7.062
		c0-5.297,3.531-8.828,8.828-8.828s8.828,3.531,8.828,8.828v7.945c0,12.359,0,12.359,9.71,17.655l3.531,1.766
		c4.414,2.648,5.297,7.945,3.531,12.359C190.559,429.676,187.028,431.441,184.379,431.441z"/>
	<path d="M166.724,360.821c-5.297,0-8.828-3.531-8.828-8.828v-44.138c0-5.297,3.531-8.828,8.828-8.828s8.828,3.531,8.828,8.828
		v44.138C175.552,357.29,172.021,360.821,166.724,360.821z"/>
	<path d="M378.586,360.821c-21.186,0-41.49-7.945-56.497-22.952c-30.897-30.897-30.897-81.214,0-112.11l50.317-47.669
		c3.531-3.531,8.828-3.531,12.359,0l50.317,46.786c30.897,30.897,30.897,81.214,0,112.11
		C420.076,352.876,399.772,360.821,378.586,360.821z M378.586,196.628l-44.138,41.49c-23.834,23.834-23.834,63.559,0,87.393
		c11.476,11.476,27.366,17.655,44.138,17.655s31.779-6.179,44.138-17.655c23.835-23.835,23.835-63.559,0-87.393L378.586,196.628z"/>
	<path d="M443.028,261.952c-0.883,0-1.766,0-2.648-0.883c-2.648-0.883-4.414-2.648-5.297-5.297
		c-3.531-7.062-7.062-13.241-13.241-19.421l-44.138-41.49l-44.138,41.49c-5.297,5.297-9.71,11.476-12.359,18.538
		c-0.883,2.648-2.648,4.414-5.297,5.297c-2.648,0.883-5.297,0.883-7.062-0.883l-59.145-33.545c-1.766,0-3.531-2.648-3.531-6.179
		V60.683c0-3.531,1.766-7.062,5.297-7.945L375.055-0.228c2.648-0.883,5.297-0.883,7.945,0l123.586,70.621
		c2.648,1.766,4.414,4.414,4.414,7.945v141.241c0,3.531-1.766,6.179-4.414,7.945l-59.145,33.545
		C446.559,261.952,444.793,261.952,443.028,261.952z M378.586,175.441c1.766,0,4.414,0.883,6.179,2.648l50.317,46.786
		c4.414,4.414,8.828,10.593,12.359,15.89l46.786-26.483V83.634L379.469,17.428L263.828,66.862v148.303l46.786,26.483
		c3.531-6.179,7.062-11.476,12.359-15.89l50.317-47.669C374.172,176.324,376.821,175.441,378.586,175.441z"/>
	<path d="M255,510.89c-1.766,0-2.648,0-4.414-0.883L127,439.386c-2.648-1.766-4.414-4.414-4.414-7.945V290.2
		c0-3.531,1.766-6.179,4.414-7.945l123.586-70.621c2.648-1.766,6.179-1.766,8.828,0l59.145,33.545
		c3.531,2.648,5.297,7.062,3.531,11.476c-10.593,23.835-5.297,50.317,12.359,68.855c11.476,11.476,27.366,17.655,43.255,17.655
		c5.297,0,8.828,3.531,8.828,8.828v79.448c0,3.531-1.766,6.179-4.414,7.945l-123.586,70.621
		C257.648,510.89,256.766,510.89,255,510.89z M140.241,426.145L255,491.469l114.759-65.324v-66.207
		c-17.655-1.766-34.428-9.71-47.669-22.952c-21.186-21.186-28.248-52.083-19.421-80.331L255,230.172l-114.759,65.324V426.145z"/>
</g>
</svg>